Coordinates
version=1
nRows=14
nColumns=40
inDegrees=yes

Units are S.I. units (second, meters, Newtons, ...)
Angles are in degrees.

endheader
time	pelvis_tilt	pelvis_list	pelvis_rotation	pelvis_tx	pelvis_ty	pelvis_tz	hip_flexion_r	hip_adduction_r	hip_rotation_r	knee_angle_r	knee_angle_r_beta	ankle_angle_r	subtalar_angle_r	mtp_angle_r	hip_flexion_l	hip_adduction_l	hip_rotation_l	knee_angle_l	knee_angle_l_beta	ankle_angle_l	subtalar_angle_l	mtp_angle_l	lumbar_extension	lumbar_bending	lumbar_rotation	arm_flex_r	arm_add_r	arm_rot_r	elbow_flex_r	pro_sup_r	wrist_flex_r	wrist_dev_r	arm_flex_l	arm_add_l	arm_rot_l	elbow_flex_l	pro_sup_l	wrist_flex_l	wrist_dev_l
     54.01500000	     -6.18701492	     -4.36393630	     -1.43545367	      1.04618605	      0.93169595	      0.42060400	     37.73097345	     -6.73308259	     -6.76382282	     54.82018713	     54.82018713	      1.45285456	    -14.35918199	      1.31598953	     11.87646477	     -4.81302389	     -8.22092470	     17.76861181	     17.76861181	     14.60691820	     -3.80165522	     -4.01134159	    -12.39880191	      3.65368015	      1.79226580	      6.88410066	    -15.40761618	      3.28824354	     31.90539055	     46.70518969	      0.00000000	      0.00000000	      8.82067615	    -14.30540577	     -0.12845437	     56.05747817	     46.47214459	      0.00000000	      0.00000000
     54.02657143	     -6.12307709	     -4.23119400	     -1.63758671	      1.04598094	      0.93164529	      0.42056547	     37.80588366	     -6.65684225	     -6.77481985	     51.64859362	     51.64859362	      1.34005738	    -13.26314260	      1.35831887	     10.78693183	     -4.62130749	     -8.57282365	     16.97675699	     16.97675699	     14.83194604	     -3.36506989	     -4.21773701	    -12.44167657	      3.62299192	      1.88466504	      5.03091055	    -15.94657287	      3.04955375	     30.37515188	     46.76023546	      0.00000000	      0.00000000	      9.94824501	    -14.61839542	     -0.40770750	     57.57075700	     46.52875497	      0.00000000	      0.00000000
     54.03814286	     -6.03481169	     -4.03236530	     -1.83158016	      1.04587515	      0.93149176	      0.42064856	     37.71060793	     -6.63173677	     -6.84069267	     48.24268918	     48.24268918	      1.20739446	    -12.10217807	      1.33322795	      9.62761126	     -4.36062205	     -9.02463495	     16.10268867	     16.10268867	     15.00938147	     -2.82284410	     -4.55036322	    -12.50781015	      3.49878804	      2.01171979	      3.23576681	    -16.40515850	      2.70083895	     28.80764286	     46.82546982	      0.00000000	      0.00000000	     10.96045728	    -14.92352579	     -0.65894568	     59.48096590	     46.58878766	      0.00000000	      0.00000000
     54.04971429	     -5.99712619	     -3.80293389	     -2.00715651	      1.04583663	      0.93106680	      0.42085410	     37.55108678	     -6.61118225	     -6.95453861	     44.67759668	     44.67759668	      1.06048803	    -10.90495340	      1.34085773	      8.55834235	     -4.07377594	     -9.46045201	     15.28990831	     15.28990831	     15.17059025	     -2.25797914	     -4.96864905	    -12.49800930	      3.31082749	      1.94560236	      1.50326474	    -16.75293826	      2.28276681	     27.53050606	     46.88548128	      0.00000000	      0.00000000	     11.82342364	    -15.35209543	     -0.95837951	     61.49609730	     46.65318735	      0.00000000	      0.00000000
     54.06128571	     -6.07750353	     -3.63739601	     -2.10197698	      1.04583007	      0.93038891	      0.42114896	     37.34308786	     -6.53562404	     -7.26958268	     40.90327721	     40.90327721	      0.86897965	     -9.66075802	      1.61333559	      7.64950645	     -3.85824081	     -9.78412876	     14.52374879	     14.52374879	     15.35720894	     -1.68997353	     -5.29351963	    -12.32083170	      3.23740960	      1.74707252	     -0.25450454	    -17.06466231	      1.97734277	     26.63544970	     46.92413405	      0.00000000	      0.00000000	     12.61590837	    -15.76020623	     -1.30624281	     63.21802803	     46.71404946	      0.00000000	      0.00000000
     54.07285714	     -5.93947688	     -3.29576803	     -2.27137042	      1.04614592	      0.92971071	      0.42160722	     36.87042564	     -6.59519904	     -7.54056516	     37.18933033	     37.18933033	      0.74069611	     -8.08972490	      1.59473862	      6.36578114	     -3.45886101	    -10.42911478	     13.54899810	     13.54899810	     15.46128225	     -0.74309554	     -5.98422631	    -12.46449124	      2.87347385	      1.77874767	     -2.13383552	    -17.27461039	      1.25437235	     25.88882054	     46.98285969	      0.00000000	      0.00000000	     13.21819729	    -16.13257569	     -1.86193692	     66.31930259	     46.81937041	      0.00000000	      0.00000000
     54.08442857	     -5.97574525	     -3.05673646	     -2.35795982	      1.04648033	      0.92861075	      0.42220049	     36.42882777	     -6.53887281	     -8.01578796	     33.38372305	     33.38372305	      0.48122245	     -6.59277234	      1.74244962	      5.38494080	     -3.19827740	    -10.98204264	     12.75929955	     12.75929955	     15.49516202	      0.15011665	     -6.96571957	    -12.37386819	      2.65720946	      1.26789961	     -3.85991820	    -17.37053701	     -0.15294729	     25.91181000	     47.04921438	      0.00000000	      0.00000000	     13.19255833	    -16.71647319	     -2.80773244	     69.77531756	     46.96932603	      0.00000000	      0.00000000
     54.09600000	     -5.96244565	     -2.84791623	     -2.38602120	      1.04697604	      0.92748303	      0.42288577	     35.81291120	     -6.40951997	     -8.54820459	     29.61208663	     29.61208663	      0.37096263	     -5.10430290	      2.50323919	      4.40624624	     -2.95177209	    -11.26234314	     12.10738272	     12.10738272	     15.79068843	      0.76840275	     -7.23128566	    -12.26473011	      2.49450497	      1.11040613	     -5.64130087	    -17.57912934	     -0.46477533	     25.46153834	     47.06769185	      0.00000000	      0.00000000	     14.05562674	    -16.93633919	     -3.33019438	     71.35840861	     47.04556581	      0.00000000	      0.00000000
     54.10757143	     -5.84248754	     -2.56888523	     -2.43164409	      1.04774360	      0.92627137	      0.42375256	     35.09477033	     -6.35214007	     -9.19878894	     26.14135077	     26.14135077	      0.36630291	     -3.33141415	      3.48529494	      3.23773956	     -2.64022710	    -11.72141950	     11.35680762	     11.35680762	     16.08639981	      1.67847624	     -7.56981997	    -12.28066091	      2.20057778	      1.08268626	     -7.59425493	    -17.74077900	     -0.88580794	     25.34742739	     47.07639479	      0.00000000	      0.00000000	     14.78111467	    -17.07973574	     -3.95315492	     73.56962035	     47.13942503	      0.00000000	      0.00000000
     54.11914286	     -5.71400891	     -2.16450148	     -2.48663567	      1.04873711	      0.92473695	      0.42477275	     34.54236353	     -6.45195326	     -9.91275445	     23.35092194	     23.35092194	      0.96169058	     -1.23048895	      5.52478870	      2.07517327	     -2.23528292	    -12.47481137	     10.65858229	     10.65858229	     16.39919468	      3.07017222	     -8.15569138	    -12.32489083	      1.72320801	      0.77625941	     -9.77486730	    -17.79366331	     -2.11260290	     26.69931068	     47.06080069	      0.00000000	      0.00000000	     14.83871204	    -17.35937439	     -5.12419911	     77.24424185	     47.30815296	      0.00000000	      0.00000000
     54.13071429	     -5.60138529	     -1.93439785	     -2.47404186	      1.04977706	      0.92319903	      0.42599937	     33.94277140	     -6.32407584	    -10.57339279	     20.84152683	     20.84152683	      1.68622967	      0.35312522	      8.58897568	      1.09611449	     -2.04436440	    -12.91803559	     10.29237948	     10.29237948	     16.89255988	      3.97272067	     -8.34835472	    -12.33169209	      1.47070064	      0.44961329	    -11.79796631	    -17.81053298	     -3.46089017	     27.94350525	     47.03344779	      0.00000000	      0.00000000	     15.12533001	    -17.54588545	     -6.24046911	     79.89642169	     47.47387429	      0.00000000	      0.00000000
     54.14228571	     -5.52161130	     -1.66331819	     -2.45121000	      1.05098177	      0.92148657	      0.42738670	     33.32807406	     -6.18204132	    -11.07851096	     18.56567862	     18.56567862	      1.64037240	      1.43931269	      9.44830393	      0.13492262	     -1.78118299	    -13.09607110	      9.89072096	      9.89072096	     17.29680152	      4.46386319	     -8.45395455	    -12.18945966	      1.14522295	      0.45132165	    -13.42331896	    -17.74703465	     -3.58415369	     27.59760807	     47.03230591	      0.00000000	      0.00000000	     16.00979251	    -17.59474922	     -6.61966509	     81.32582516	     47.53474162	      0.00000000	      0.00000000
     54.15385714	     -5.30964807	     -1.38610135	     -2.42185700	      1.05239963	      0.91985245	      0.42888753	     32.80825633	     -6.18819546	    -11.82495787	     17.22874056	     17.22874056	      2.29782892	      2.94021911	     11.47290285	     -0.98038300	     -1.56288909	    -13.61154138	      9.52151825	      9.52151825	     17.89347440	      5.63077709	     -8.33931940	    -12.29326270	      0.83351100	      0.25566718	    -15.44272780	    -17.70587393	     -4.55569883	     28.87695277	     46.98672573	      0.00000000	      0.00000000	     16.19387960	    -17.64712659	     -7.50817646	     84.40570963	     47.68138813	      0.00000000	      0.00000000
     54.16542857	     -5.21612280	     -1.21060193	     -2.35478880	      1.05379527	      0.91811608	      0.43067365	     32.26801143	     -5.98786671	    -12.17958214	     15.96937826	     15.96937826	      2.23711027	      3.52109680	     11.99212233	     -1.82752117	     -1.46964697	    -13.67637024	      9.39409842	      9.39409842	     18.34188677	      5.94403583	     -8.37363015	    -12.18840949	      0.59394260	      0.29126320	    -16.85825054	    -17.51024335	     -4.67011965	     28.66945067	     46.98106701	      0.00000000	      0.00000000	     17.01170575	    -17.60588817	     -7.92037918	     85.81448996	     47.74530731	      0.00000000	      0.00000000
